REM DIRINDEX 1\2\3,1\2\4,1\2\5,1\2\6
REM DIRNAME folder01,folder02,folder03,folder04,folder05,folder06
TITLE ""
FILE "194 194.mp3" MP3
  TRACK 01 AUDIO
    TITLE "0:"
    INDEX 01 00:00:00
  TRACK 02 AUDIO
    TITLE "3:cjc157_6987"
    INDEX 01 00:00:11
  TRACK 03 AUDIO
    TITLE "0:"
    INDEX 01 00:01:42
  TRACK 04 AUDIO
    TITLE "4:cjc157_6988"
    INDEX 01 00:02:14
  TRACK 05 AUDIO
    TITLE "0:"
    INDEX 01 00:04:31
  TRACK 06 AUDIO
    TITLE "5:cjc157_6989"
    INDEX 01 00:05:01
  TRACK 07 AUDIO
    TITLE "0:"
    INDEX 01 00:09:32
  TRACK 08 AUDIO
    TITLE "3:cjc157_6990"
    INDEX 01 00:10:08
  TRACK 09 AUDIO
    TITLE "0:"
    INDEX 01 00:11:40
  TRACK 10 AUDIO
    TITLE "4:cjc157_6991"
    INDEX 01 00:12:12
  TRACK 11 AUDIO
    TITLE "0:"
    INDEX 01 00:13:51
  TRACK 12 AUDIO
    TITLE "5:cjc157_6992"
    INDEX 01 00:14:19
  TRACK 13 AUDIO
    TITLE "0:"
    INDEX 01 00:18:44
  TRACK 14 AUDIO
    TITLE "3:cjc157_6993"
    INDEX 01 00:19:15
  TRACK 15 AUDIO
    TITLE "0:"
    INDEX 01 00:20:43
  TRACK 16 AUDIO
    TITLE "4:cjc157_6994"
    INDEX 01 00:21:15
  TRACK 17 AUDIO
    TITLE "0:"
    INDEX 01 00:22:52
  TRACK 18 AUDIO
    TITLE "5:cjc157_6995"
    INDEX 01 00:23:24
  TRACK 19 AUDIO
    TITLE "0:"
    INDEX 01 00:26:46
  TRACK 20 AUDIO
    TITLE "5:cjc157_6996"
    INDEX 01 00:27:34
  TRACK 21 AUDIO
    TITLE "0:"
    INDEX 01 00:31:29
  TRACK 22 AUDIO
    TITLE "3:cjc157_6997"
    INDEX 01 00:32:03
  TRACK 23 AUDIO
    TITLE "0:"
    INDEX 01 00:33:21
  TRACK 24 AUDIO
    TITLE "4:cjc157_6998"
    INDEX 01 00:33:60
  TRACK 25 AUDIO
    TITLE "0:"
    INDEX 01 00:35:12
  TRACK 26 AUDIO
    TITLE "5:cjc157_6999"
    INDEX 01 00:35:57
  TRACK 27 AUDIO
    TITLE "0:"
    INDEX 01 00:39:54
  TRACK 28 AUDIO
    TITLE "5:cjc157_7000"
    INDEX 01 00:40:24
  TRACK 29 AUDIO
    TITLE "0:"
    INDEX 01 00:44:12
  TRACK 30 AUDIO
    TITLE "3:cjc157_7001"
    INDEX 01 00:44:69
  TRACK 31 AUDIO
    TITLE "0:"
    INDEX 01 00:46:35
  TRACK 32 AUDIO
    TITLE "4:cjc157_7002"
    INDEX 01 00:47:01
  TRACK 33 AUDIO
    TITLE "0:"
    INDEX 01 00:48:42
  TRACK 34 AUDIO
    TITLE "5:cjc157_7003"
    INDEX 01 00:49:08
  TRACK 35 AUDIO
    TITLE "0:"
    INDEX 01 00:54:23
  TRACK 36 AUDIO
    TITLE "3:cjc157_7004"
    INDEX 01 00:54:70
  TRACK 37 AUDIO
    TITLE "0:"
    INDEX 01 00:56:41
  TRACK 38 AUDIO
    TITLE "4:cjc157_7005"
    INDEX 01 00:57:13
  TRACK 39 AUDIO
    TITLE "0:"
    INDEX 01 00:58:56
  TRACK 40 AUDIO
    TITLE "5:cjc157_7006"
    INDEX 01 00:59:22
  TRACK 41 AUDIO
    TITLE "0:"
    INDEX 01 01:03:14
  TRACK 42 AUDIO
    TITLE "5:cjc157_7007"
    INDEX 01 01:03:59
  TRACK 43 AUDIO
    TITLE "0:"
    INDEX 01 01:07:17
  TRACK 44 AUDIO
    TITLE "3:cjc157_7008"
    INDEX 01 01:07:64
  TRACK 45 AUDIO
    TITLE "0:"
    INDEX 01 01:09:44
  TRACK 46 AUDIO
    TITLE "4:cjc157_7009"
    INDEX 01 01:10:18
  TRACK 47 AUDIO
    TITLE "0:"
    INDEX 01 01:12:19
  TRACK 48 AUDIO
    TITLE "5:cjc157_7010"
    INDEX 01 01:12:64
  TRACK 49 AUDIO
    TITLE "0:"
    INDEX 01 01:18:70
  TRACK 50 AUDIO
    TITLE "3:cjc157_7011"
    INDEX 01 01:19:38
  TRACK 51 AUDIO
    TITLE "0:"
    INDEX 01 01:21:02
  TRACK 52 AUDIO
    TITLE "4:cjc157_7012"
    INDEX 01 01:21:49
  TRACK 53 AUDIO
    TITLE "0:"
    INDEX 01 01:22:62
  TRACK 54 AUDIO
    TITLE "5:cjc157_7013"
    INDEX 01 01:23:36
  TRACK 55 AUDIO
    TITLE "0:"
    INDEX 01 01:26:30
  TRACK 56 AUDIO
    TITLE "3:cjc157_7014"
    INDEX 01 01:27:04
  TRACK 57 AUDIO
    TITLE "0:"
    INDEX 01 01:28:14
  TRACK 58 AUDIO
    TITLE "4:cjc157_7015"
    INDEX 01 01:28:55
  TRACK 59 AUDIO
    TITLE "0:"
    INDEX 01 01:30:28
  TRACK 60 AUDIO
    TITLE "5:cjc157_7016"
    INDEX 01 01:31:02
  TRACK 61 AUDIO
    TITLE "0:"
    INDEX 01 01:34:06
  TRACK 62 AUDIO
    TITLE "3:cjc157_7017"
    INDEX 01 01:34:55
  TRACK 63 AUDIO
    TITLE "0:"
    INDEX 01 01:36:01
  TRACK 64 AUDIO
    TITLE "4:cjc157_7018"
    INDEX 01 01:36:47
  TRACK 65 AUDIO
    TITLE "0:"
    INDEX 01 01:38:14
  TRACK 66 AUDIO
    TITLE "5:cjc157_7019"
    INDEX 01 01:38:57
  TRACK 67 AUDIO
    TITLE "0:"
    INDEX 01 01:41:52
